M48
; DRILL file KiCad 10.0.4 date 2026-07-07T17:50:05
; FORMAT={-:-/ absolute / metric / decimal}
; #@! TF.CreationDate,2026-07-07T17:50:05-06:00
; #@! TF.GenerationSoftware,Kicad,Pcbnew,10.0.4
; #@! TF.FileFunction,NonPlated,1,2,NPTH
FMAT,2
METRIC
; #@! TA.AperFunction,NonPlated,NPTH,ComponentDrill
T1C1.700
; #@! TA.AperFunction,NonPlated,NPTH,ComponentDrill
T2C4.000
%
G90
G05
T1
X109.22Y-57.15
X109.22Y-76.2
X109.22Y-95.25
X119.38Y-57.15
X119.38Y-76.2
X119.38Y-95.25
X128.27Y-57.15
X128.27Y-76.2
X128.27Y-95.25
X138.43Y-57.15
X138.43Y-76.2
X138.43Y-95.25
X147.32Y-57.15
X147.32Y-76.2
X147.32Y-95.25
X157.48Y-57.15
X157.48Y-76.2
X157.48Y-95.25
T2
X114.3Y-57.15
X114.3Y-76.2
X114.3Y-95.25
X133.35Y-57.15
X133.35Y-76.2
X133.35Y-95.25
X152.4Y-57.15
X152.4Y-76.2
X152.4Y-95.25
M30
