M48
; DRILL file KiCad 10.0.4 date 2026-07-07T17:50:05
; FORMAT={-:-/ absolute / metric / decimal}
; #@! TF.CreationDate,2026-07-07T17:50:05-06:00
; #@! TF.GenerationSoftware,Kicad,Pcbnew,10.0.4
; #@! TF.FileFunction,Plated,1,2,PTH
FMAT,2
METRIC
; #@! TA.AperFunction,Plated,PTH,ComponentDrill
T1C0.900
; #@! TA.AperFunction,Plated,PTH,ComponentDrill
T2C1.500
%
G90
G05
T1
X72.39Y-60.96
X72.39Y-63.5
X72.39Y-66.04
X72.39Y-68.58
X72.39Y-71.12
X72.39Y-73.66
X72.39Y-76.2
X72.39Y-78.74
X72.39Y-81.28
X72.39Y-83.82
X72.39Y-86.36
X72.39Y-88.9
X72.39Y-91.44
X72.39Y-93.98
X72.39Y-96.52
X95.25Y-60.96
X95.25Y-63.5
X95.25Y-66.04
X95.25Y-68.58
X95.25Y-71.12
X95.25Y-73.66
X95.25Y-76.2
X95.25Y-78.74
X95.25Y-81.28
X95.25Y-83.82
X95.25Y-86.36
X95.25Y-88.9
X95.25Y-91.44
X95.25Y-93.98
X95.25Y-96.52
T2
X110.49Y-54.61
X110.49Y-73.66
X110.49Y-92.71
X116.84Y-52.07
X116.84Y-71.12
X116.84Y-90.17
X129.54Y-54.61
X129.54Y-73.66
X129.54Y-92.71
X135.89Y-52.07
X135.89Y-71.12
X135.89Y-90.17
X148.59Y-54.61
X148.59Y-73.66
X148.59Y-92.71
X154.94Y-52.07
X154.94Y-71.12
X154.94Y-90.17
M30
